<svg xmlns="http://www.w3.org/2000/svg" viewBox="0 0 500 500">
  <!-- Background -->
  <rect width="500" height="500" fill="#f3f4f6" rx="15" ry="15"/>
  
  <!-- Color accents -->
  <rect x="40" y="40" width="420" height="420" fill="#4f46e511" rx="10" ry="10"/>
  
  <!-- Decorative elements -->
  <circle cx="120" cy="120" r="60" fill="#4f46e522"/>
  <circle cx="380" cy="380" r="40" fill="#06b6d422"/>
  
  <!-- ASL hand shape outlines -->
  <!-- Hand 1 -->
  <path d="M150,180 C130,150 120,130 110,100 C105,85 130,80 135,95 C140,110 150,125 160,145 C165,110 175,90 175,60 C175,45 195,45 195,60 C195,90 195,100 190,140 C205,115 210,105 220,75 C225,60 245,65 240,80 C235,100 225,120 210,150 C220,140 235,115 240,90 C245,75 265,80 260,95 C255,115 235,150 220,170 C230,155 245,130 255,115 C260,105 275,110 270,125 C265,140 240,180 225,195 C245,180 265,160 275,140 C280,130 295,140 290,150 C280,170 260,200 235,215 C255,210 270,205 285,195 C295,190 305,200 295,205 C280,215 240,230 190,230 C160,230 140,220 130,215 C120,210 110,190 115,180 C120,170 140,160 150,180 Z" fill="#4f46e5" stroke="#000" stroke-width="2"/>
  
  <!-- Hand 2 -->
  <path d="M350,180 C370,150 380,130 390,100 C395,85 370,80 365,95 C360,110 350,125 340,145 C335,110 325,90 325,60 C325,45 305,45 305,60 C305,90 305,100 310,140 C295,115 290,105 280,75 C275,60 255,65 260,80 C265,100 275,120 290,150 C280,140 265,115 260,90 C255,75 235,80 240,95 C245,115 265,150 280,170 C270,155 255,130 245,115 C240,105 225,110 230,125 C235,140 260,180 275,195 C255,180 235,160 225,140 C220,130 205,140 210,150 C220,170 240,200 265,215 C245,210 230,205 215,195 C205,190 195,200 205,205 C220,215 260,230 310,230 C340,230 360,220 370,215 C380,210 390,190 385,180 C380,170 360,160 350,180 Z" fill="#06b6d4" stroke="#000" stroke-width="2"/>
  
  <!-- Text -->
  <text x="250" y="300" text-anchor="middle" font-family="Arial" font-size="24" font-weight="bold" fill="#000">American Sign Language</text>
  <text x="250" y="330" text-anchor="middle" font-family="Arial" font-size="18" fill="#333">Communication Without Barriers</text>
</svg>
